<svg version="1.1" id="Layer_1" xmlns="http://www.w3.org/2000/svg" x="0" y="0" viewBox="0 0 96.7 31.5" xml:space="preserve"><style>.st0{fill:#2d2d2d}</style><path class="st0" d="M24.1 27.8l-3.9 2.4-1.8-2.6c-1.1.3-2.3.5-3.5.5-3.8 0-6.9-1.3-9.5-3.9-2.6-2.6-3.9-5.8-3.9-9.5s1.3-6.9 3.9-9.5c2.6-2.6 5.8-4 9.5-4 3.8 0 7 1.3 9.5 3.9 2.6 2.6 3.9 5.8 3.9 9.5 0 4.4-2.2 8.4-5.7 11l1.5 2.2zm-5.9-10l1.5 3.1c2-1.6 3-3.7 3-6.3 0-2.3-.8-4.2-2.3-5.8-1.5-1.6-3.4-2.4-5.5-2.4-2.2 0-4.1.8-5.6 2.4C7.8 10.4 7 12.3 7 14.6c0 1.9.6 3.6 1.7 5.1 1.2 1.4 2.7 2.4 4.4 2.7.6.2 1.3.2 2.2.2l-1.1-2.5 4-2.3zM82 19.9c.1 1.8 1.5 3.2 3.9 3.2 2.3 0 3.8-1.1 3.8-2.8 0-1.3-.7-2.2-3.2-3l-3.2-.9c-4.5-1.4-6.8-3.9-6.8-7.5 0-2.3.9-4.2 2.6-5.6 1.7-1.5 3.9-2.2 6.4-2.2 2.6 0 4.7.7 6.3 2.2 1.7 1.4 2.5 3.4 2.5 5.9H89c0-1.8-1.2-3-3.4-3-2 0-3.4 1.1-3.4 2.6 0 1.3.9 2.1 2.8 2.7l3.1 1c4.9 1.4 7.3 4.1 7.2 7.9 0 1.6-.5 3.1-1.4 4.3-1.9 2.4-4.8 3.4-8 3.4-2.8 0-5.1-.8-6.9-2.2-1.7-1.5-2.6-3.5-2.6-5.9H82z"/><g><path d="M51.5 22.5h.7c2.2 0 4-.8 5.5-2.3 1.5-1.6 2.3-3.4 2.3-5.6 0-2.2-.8-4.1-2.3-5.6-1.5-1.6-3.3-2.3-5.5-2.3s-4 .8-5.5 2.3-2.2 3.4-2.2 5.6.8 4.1 2.2 5.6c.2.2.5.4.7.6" fill="none"/><path class="st0" d="M61.7 5.1c-2.5-2.6-5.7-4-9.4-4s-6.8 1.3-9.4 4c-2.5 2.6-3.8 5.8-3.8 9.5s1.3 6.9 3.8 9.5l.7.7 3.9-3.9c-.2-.2-.5-.4-.7-.6-1.5-1.6-2.2-3.4-2.2-5.6s.8-4.1 2.2-5.6 3.3-2.3 5.5-2.3 4 .8 5.5 2.3c1.5 1.6 2.3 3.4 2.3 5.6 0 2.2-.8 4-2.3 5.6-1.5 1.6-3.3 2.3-5.5 2.3h-.7L47 27c1.6.7 3.3 1 5.2 1 3.7 0 6.8-1.3 9.4-3.9 2.6-2.6 3.9-5.8 3.9-9.5s-1.2-6.9-3.8-9.5z"/></g></svg>